<svg xmlns="http://www.w3.org/2000/svg" width="26.278" height="26.278" viewBox="0 0 26.278 26.278"><defs><style>.a{fill:#fff;fill-rule:evenodd;}</style></defs><g transform="translate(-310.492 -154.646)"><path class="a" d="M323.626,154.646a13.139,13.139,0,1,1-13.134,13.092A13.162,13.162,0,0,1,323.626,154.646Zm7.771,13.138v-4.622A3.011,3.011,0,0,0,328.259,160q-4.636-.008-9.271,0a3.02,3.02,0,0,0-3.143,3.14q-.01,4.636,0,9.271a3.008,3.008,0,0,0,3.161,3.141h9.271a2.994,2.994,0,0,0,3.12-3.117Q331.4,170.109,331.4,167.784Z"/><path class="a" d="M350.738,205.009h2.27v.287q0,2.979,0,5.957a1.471,1.471,0,0,1-1.579,1.58h-9.354a1.462,1.462,0,0,1-1.558-1.569q0-2.979,0-5.957v-.295h2.261a4.233,4.233,0,0,0,1.661,5.123,4.091,4.091,0,0,0,4.709-.041A4.229,4.229,0,0,0,350.738,205.009Z" transform="translate(-23.134 -38.807)"/><path class="a" d="M355.827,202.718a2.732,2.732,0,1,1,2.728,2.727A2.742,2.742,0,0,1,355.827,202.718Z" transform="translate(-34.933 -34.933)"/><path class="a" d="M382.406,185.917h2.581v2.6h-2.581Z" transform="translate(-55.413 -24.096)"/></g></svg>